<svg width="51" height="50" viewBox="0 0 51 50" fill="none" xmlns="http://www.w3.org/2000/svg">
<path d="M25.8665 15.625C27.6016 15.625 29.0082 14.2259 29.0082 12.5C29.0082 10.7741 27.6016 9.375 25.8665 9.375C24.1314 9.375 22.7249 10.7741 22.7249 12.5C22.7249 14.2259 24.1314 15.625 25.8665 15.625Z" fill="white" fill-opacity="0.9"/>
<path d="M25.8665 28.125C27.6016 28.125 29.0082 26.7259 29.0082 25C29.0082 23.2741 27.6016 21.875 25.8665 21.875C24.1314 21.875 22.7249 23.2741 22.7249 25C22.7249 26.7259 24.1314 28.125 25.8665 28.125Z" fill="white" fill-opacity="0.9"/>
<path d="M25.8665 40.625C27.6016 40.625 29.0082 39.2259 29.0082 37.5C29.0082 35.7741 27.6016 34.375 25.8665 34.375C24.1314 34.375 22.7249 35.7741 22.7249 37.5C22.7249 39.2259 24.1314 40.625 25.8665 40.625Z" fill="white" fill-opacity="0.9"/>
</svg>
