<svg width="25" height="25" viewBox="0 0 25 25" fill="none" xmlns="http://www.w3.org/2000/svg">
<path d="M12.5 2.08331C6.75 2.08331 2.08333 6.74998 2.08333 12.5C2.08333 18.25 6.75 22.9166 12.5 22.9166C18.25 22.9166 22.9167 18.25 22.9167 12.5C22.9167 6.74998 18.25 2.08331 12.5 2.08331ZM11.4583 20.7604C7.34375 20.25 4.16667 16.75 4.16667 12.5C4.16667 11.8541 4.25 11.2396 4.38542 10.6354L9.375 15.625V16.6666C9.375 17.8125 10.3125 18.75 11.4583 18.75V20.7604ZM18.6458 18.1146C18.375 17.2708 17.6042 16.6666 16.6667 16.6666H15.625V13.5416C15.625 12.9687 15.1562 12.5 14.5833 12.5H8.33333V10.4166H10.4167C10.9896 10.4166 11.4583 9.9479 11.4583 9.37498V7.29165H13.5417C14.6875 7.29165 15.625 6.35415 15.625 5.20831V4.78123C18.6771 6.02081 20.8333 9.0104 20.8333 12.5C20.8333 14.6666 20 16.6354 18.6458 18.1146Z" fill="white"/>
</svg>
