<svg width="45" height="45" viewBox="0 0 45 45" fill="none" xmlns="http://www.w3.org/2000/svg">
<path d="M20.625 7.5C22.6141 7.5 24.5218 8.29018 25.9283 9.6967C27.3348 11.1032 28.125 13.0109 28.125 15C28.125 16.9891 27.3348 18.8968 25.9283 20.3033C24.5218 21.7098 22.6141 22.5 20.625 22.5C18.6359 22.5 16.7282 21.7098 15.3217 20.3033C13.9152 18.8968 13.125 16.9891 13.125 15C13.125 13.0109 13.9152 11.1032 15.3217 9.6967C16.7282 8.29018 18.6359 7.5 20.625 7.5V7.5ZM20.625 11.25C19.6304 11.25 18.6766 11.6451 17.9734 12.3483C17.2701 13.0516 16.875 14.0054 16.875 15C16.875 15.9946 17.2701 16.9484 17.9734 17.6516C18.6766 18.3549 19.6304 18.75 20.625 18.75C21.6196 18.75 22.5734 18.3549 23.2766 17.6516C23.9799 16.9484 24.375 15.9946 24.375 15C24.375 14.0054 23.9799 13.0516 23.2766 12.3483C22.5734 11.6451 21.6196 11.25 20.625 11.25V11.25ZM20.625 24.375C22.6875 24.375 25.6125 24.8062 28.3312 25.6687C27.1875 26.3812 26.25 27.375 25.5187 28.5562C23.9812 28.1812 22.2937 27.9375 20.625 27.9375C15.0563 27.9375 9.1875 30.675 9.1875 31.875V33.9375H24.45C24.6188 35.25 25.0875 36.45 25.8 37.5H5.625V31.875C5.625 26.8875 15.6187 24.375 20.625 24.375ZM34.6875 18.75H41.25V22.5H37.5V32.8125C37.5 34.0557 37.0061 35.248 36.1271 36.1271C35.248 37.0061 34.0557 37.5 32.8125 37.5C31.5693 37.5 30.377 37.0061 29.4979 36.1271C28.6189 35.248 28.125 34.0557 28.125 32.8125C28.125 31.5693 28.6189 30.377 29.4979 29.4979C30.377 28.6189 31.5693 28.125 32.8125 28.125C33.4875 28.125 34.1062 28.2562 34.6875 28.5187V18.75Z" fill="white" fill-opacity="0.7"/>
</svg>
