<svg width="40" height="40" viewBox="0 0 40 40" fill="none" xmlns="http://www.w3.org/2000/svg">
<path d="M40 5.92593C40 6.31884 39.8439 6.69566 39.5661 6.97349C39.2883 7.25132 38.9114 7.40741 38.5185 7.40741H35.5556V10.3704C35.5556 10.7633 35.3995 11.1401 35.1216 11.4179C34.8438 11.6958 34.467 11.8519 34.0741 11.8519C33.6812 11.8519 33.3043 11.6958 33.0265 11.4179C32.7487 11.1401 32.5926 10.7633 32.5926 10.3704V7.40741H29.6296C29.2367 7.40741 28.8599 7.25132 28.5821 6.97349C28.3042 6.69566 28.1481 6.31884 28.1481 5.92593C28.1481 5.53301 28.3042 5.15619 28.5821 4.87836C28.8599 4.60053 29.2367 4.44444 29.6296 4.44444H32.5926V1.48148C32.5926 1.08857 32.7487 0.711747 33.0265 0.433916C33.3043 0.156084 33.6812 0 34.0741 0C34.467 0 34.8438 0.156084 35.1216 0.433916C35.3995 0.711747 35.5556 1.08857 35.5556 1.48148V4.44444H38.5185C38.9114 4.44444 39.2883 4.60053 39.5661 4.87836C39.8439 5.15619 40 5.53301 40 5.92593ZM37.037 17.6296V27.4074C37.037 28.7259 36.646 30.0149 35.9135 31.1112C35.181 32.2075 34.1398 33.062 32.9216 33.5666C31.7034 34.0712 30.363 34.2032 29.0698 33.946C27.7766 33.6887 26.5887 33.0538 25.6563 32.1215C24.724 31.1891 24.089 30.0012 23.8318 28.708C23.5746 27.4148 23.7066 26.0744 24.2112 24.8562C24.7158 23.638 25.5702 22.5968 26.6666 21.8643C27.7629 21.1317 29.0518 20.7407 30.3704 20.7407C31.6907 20.7346 32.9819 21.1284 34.0741 21.8704V17.6296C34.0741 17.2367 34.2302 16.8599 34.508 16.5821C34.7858 16.3042 35.1626 16.1481 35.5556 16.1481C35.9485 16.1481 36.3253 16.3042 36.6031 16.5821C36.881 16.8599 37.037 17.2367 37.037 17.6296ZM34.0741 27.4074C34.0741 26.6749 33.8569 25.9588 33.4499 25.3497C33.0429 24.7407 32.4645 24.266 31.7877 23.9856C31.111 23.7053 30.3663 23.632 29.6478 23.7749C28.9294 23.9178 28.2694 24.2705 27.7515 24.7885C27.2335 25.3065 26.8807 25.9664 26.7378 26.6848C26.5949 27.4033 26.6683 28.148 26.9486 28.8248C27.2289 29.5015 27.7036 30.08 28.3127 30.4869C28.9218 30.8939 29.6378 31.1111 30.3704 31.1111C31.3512 31.1062 32.2904 30.7145 32.9839 30.0209C33.6774 29.3274 34.0692 28.3882 34.0741 27.4074ZM13.3333 17.4444V33.3333C13.3333 34.6519 12.9423 35.9408 12.2098 37.0371C11.4773 38.1335 10.4361 38.9879 9.21789 39.4925C7.99972 39.9971 6.65927 40.1291 5.36607 39.8719C4.07286 39.6147 2.88497 38.9797 1.95262 38.0474C1.02027 37.115 0.385336 35.9271 0.128101 34.6339C-0.129134 33.3407 0.00288853 32.0003 0.507473 30.7821C1.01206 29.5639 1.86654 28.5227 2.96287 27.7902C4.0592 27.0577 5.34813 26.6667 6.66667 26.6667C7.98699 26.6605 9.27821 27.0544 10.3704 27.7963V7.40741C10.3692 7.07478 10.4799 6.75143 10.6849 6.48941C10.8898 6.22739 11.1769 6.04196 11.5 5.96296L21.9444 3.35185C22.1362 3.29411 22.3377 3.27586 22.5367 3.29819C22.7358 3.32053 22.9282 3.38298 23.1024 3.48179C23.2766 3.5806 23.429 3.7137 23.5503 3.87306C23.6716 4.03242 23.7594 4.21472 23.8082 4.40894C23.8571 4.60317 23.8661 4.80529 23.8346 5.00308C23.8032 5.20088 23.732 5.39024 23.6253 5.55973C23.5186 5.72922 23.3786 5.87531 23.2138 5.98918C23.0491 6.10305 22.8629 6.18232 22.6667 6.22222L13.3333 8.55555V14.4074L26.1296 11.2037C26.3214 11.146 26.5229 11.1277 26.7219 11.15C26.921 11.1724 27.1134 11.2348 27.2876 11.3336C27.4618 11.4325 27.6142 11.5656 27.7355 11.7249C27.8568 11.8843 27.9446 12.0666 27.9934 12.2608C28.0423 12.455 28.0513 12.6571 28.0198 12.8549C27.9884 13.0527 27.9171 13.2421 27.8104 13.4116C27.7037 13.5811 27.5638 13.7272 27.399 13.841C27.2343 13.9549 27.0481 14.0342 26.8519 14.0741L13.3333 17.4444ZM10.3704 33.3333C10.3704 32.6008 10.1532 31.8847 9.74619 31.2757C9.33922 30.6666 8.76078 30.1919 8.08401 29.9116C7.40725 29.6312 6.66256 29.5579 5.94411 29.7008C5.22566 29.8437 4.56573 30.1964 4.04776 30.7144C3.52978 31.2324 3.17704 31.8923 3.03413 32.6108C2.89122 33.3292 2.96457 34.0739 3.24489 34.7507C3.52522 35.4274 3.99993 36.0059 4.609 36.4128C5.21807 36.8198 5.93415 37.037 6.66667 37.037C7.64745 37.0322 8.58668 36.6404 9.2802 35.9469C9.97373 35.2533 10.3655 34.3141 10.3704 33.3333Z" fill="white" fill-opacity="0.7"/>
</svg>
